# xmcd CD database file
#
# Track frame offsets:
#	150
#	21932
#	44772
#	74457
#	100715
#	122720
#	152250
#	172050
#
# Disc length: 2614 seconds
#
# Revision: 1
# Processed by: cddbd v1.4PL0 Copyright (c) Steve Scherf et al.
# Submitted via: CDex 1.51
#
DISCID=670a3408
DTITLE=Irene Reid - Million Dollar Secret
DYEAR=1997
DGENRE=Jazz
TTITLE0=What A Difference A Day Makes
TTITLE1=Here's To Life
TTITLE2=What I Did For Love
TTITLE3=Big Fat Daddy
TTITLE4=One Eyed Man
TTITLE5=Didn't We
TTITLE6=Million Dollar Secret
TTITLE7=This Bitter Earth
EXTD=YEAR: 1997
EXTT0=
EXTT1=
EXTT2=
EXTT3=
EXTT4=
EXTT5=
EXTT6=
EXTT7=
PLAYORDER=
